<svg width="42" height="41" viewBox="0 0 42 41" fill="none" xmlns="http://www.w3.org/2000/svg">
<g id="ant-design:linkedin-filled">
<path id="Vector" d="M36.1981 4.48962H6.73902C6.03056 4.48962 5.45819 5.062 5.45819 5.77046V35.2296C5.45819 35.938 6.03056 36.5104 6.73902 36.5104H36.1981C36.9066 36.5104 37.479 35.938 37.479 35.2296V5.77046C37.479 5.062 36.9066 4.48962 36.1981 4.48962ZM14.9564 31.7753H10.2053V16.4934H14.9564V31.7753ZM12.5828 14.4041C12.0382 14.4041 11.5057 14.2425 11.0529 13.94C10.6 13.6374 10.2471 13.2073 10.0386 12.7041C9.83022 12.2009 9.77568 11.6472 9.88194 11.113C9.9882 10.5789 10.2505 10.0882 10.6356 9.70305C11.0207 9.31792 11.5114 9.05565 12.0456 8.9494C12.5798 8.84314 13.1335 8.89768 13.6366 9.1061C14.1398 9.31453 14.5699 9.66749 14.8725 10.1203C15.1751 10.5732 15.3366 11.1056 15.3366 11.6503C15.3326 13.1713 14.0998 14.4041 12.5828 14.4041ZM32.7439 31.7753H27.9968V24.3425C27.9968 22.5694 27.9648 20.2919 25.5272 20.2919C23.0576 20.2919 22.6774 22.2211 22.6774 24.2144V31.7753H17.9343V16.4934H22.4892V18.5828H22.5533C23.1857 17.382 24.7347 16.1132 27.0482 16.1132C31.8593 16.1132 32.7439 19.2792 32.7439 23.3939V31.7753Z" fill="white"/>
</g>
</svg>
