<svg width="42" height="41" viewBox="0 0 42 41" fill="none" xmlns="http://www.w3.org/2000/svg">
<g id="ant-design:facebook-filled">
<path id="Vector" d="M36.2103 4.48962H6.75117C6.04271 4.48962 5.47034 5.062 5.47034 5.77046V35.2296C5.47034 35.938 6.04271 36.5104 6.75117 36.5104H36.2103C36.9187 36.5104 37.4911 35.938 37.4911 35.2296V5.77046C37.4911 5.062 36.9187 4.48962 36.2103 4.48962ZM32.5119 13.8357H29.9542C27.9489 13.8357 27.5607 14.7883 27.5607 16.1892V19.2752H32.3478L31.7234 24.1064H27.5607V36.5104H22.5694V24.1104H18.3947V19.2752H22.5694V15.7129C22.5694 11.5782 25.0951 9.32476 28.7855 9.32476C30.5546 9.32476 32.0716 9.45685 32.5159 9.51689V13.8357H32.5119Z" fill="white"/>
</g>
</svg>
