<svg width="41" height="41" viewBox="0 0 41 41" fill="none" xmlns="http://www.w3.org/2000/svg">
<g id="ant-design:twitter-outlined">
<path id="Vector" d="M37.145 10.1854C35.9202 10.7138 34.5873 11.094 33.2144 11.2421C34.6398 10.3953 35.7072 9.05748 36.2164 7.47966C34.8788 8.27533 33.4136 8.83327 31.8855 9.12873C31.2469 8.44599 30.4745 7.90209 29.6165 7.53092C28.7585 7.15975 27.8332 6.96927 26.8983 6.97133C23.1159 6.97133 20.0739 10.0373 20.0739 13.7998C20.0739 14.3281 20.1379 14.8564 20.242 15.3648C14.5783 15.0686 9.52705 12.3628 6.16887 8.22014C5.55697 9.26528 5.23632 10.4553 5.24026 11.6664C5.24026 14.0359 6.44505 16.1253 8.28224 17.3541C7.19955 17.3114 6.14222 17.0138 5.19624 16.4855V16.5696C5.19624 19.8877 7.54176 22.6375 10.6678 23.2699C10.0808 23.4224 9.47704 23.5004 8.87062 23.5021C8.42633 23.5021 8.00606 23.458 7.58178 23.398C8.44634 26.1037 10.964 28.069 13.9619 28.1331C11.6164 29.9703 8.67849 31.051 5.48843 31.051C4.91605 31.051 4.38771 31.0309 3.83936 30.9669C6.86532 32.9082 10.4556 34.0289 14.3222 34.0289C26.8743 34.0289 33.7428 23.6301 33.7428 14.6043C33.7428 14.3081 33.7428 14.0119 33.7227 13.7157C35.0516 12.7431 36.2164 11.5383 37.145 10.1854Z" fill="white"/>
</g>
</svg>
