<svg width="46" height="47" viewBox="0 0 46 47" fill="none" xmlns="http://www.w3.org/2000/svg">
<g id="bx:bx-map">
<path id="Vector" d="M23 27.34C27.2281 27.34 30.6666 23.9015 30.6666 19.6734C30.6666 15.4452 27.2281 12.0067 23 12.0067C18.7718 12.0067 15.3333 15.4452 15.3333 19.6734C15.3333 23.9015 18.7718 27.34 23 27.34ZM23 15.84C25.1141 15.84 26.8333 17.5593 26.8333 19.6734C26.8333 21.7875 25.1141 23.5067 23 23.5067C20.8859 23.5067 19.1666 21.7875 19.1666 19.6734C19.1666 17.5593 20.8859 15.84 23 15.84Z" fill="white"/>
<path id="Vector_2" d="M21.8884 42.3169C22.2128 42.5486 22.6014 42.6731 23.0001 42.6731C23.3987 42.6731 23.7873 42.5486 24.1117 42.3169C24.6944 41.9048 38.389 32.0168 38.3334 19.6734C38.3334 11.219 31.4545 4.34009 23.0001 4.34009C14.5457 4.34009 7.66673 11.219 7.66673 19.6638C7.61115 32.0168 21.3057 41.9048 21.8884 42.3169ZM23.0001 8.17342C29.3423 8.17342 34.5001 13.3312 34.5001 19.683C34.5403 28.1892 26.0897 35.8271 23.0001 38.3322C19.9123 35.8252 11.4598 28.1853 11.5001 19.6734C11.5001 13.3312 16.6578 8.17342 23.0001 8.17342Z" fill="white"/>
</g>
</svg>
