<svg width="62" height="63" viewBox="0 0 62 63" fill="none" xmlns="http://www.w3.org/2000/svg">
<path id="Vector" d="M13.2857 17.7832L6.99714 11.4615L11.16 7.25705L17.419 13.6085L13.2857 17.7832ZM33.9524 0.189941V9.13564H28.0476V0.189941H33.9524ZM55.0029 11.4615L48.7143 17.7832L44.581 13.6085L50.84 7.25705L55.0029 11.4615ZM8.85714 28.518V34.4818H0V28.518H8.85714ZM53.1429 28.518H62V34.4818H53.1429V28.518ZM13.2857 56.8461H48.7143C50.2803 56.8461 51.7822 57.4744 52.8896 58.5928C53.9969 59.7113 54.619 61.2282 54.619 62.8099H7.38095C7.38095 61.2282 8.00306 59.7113 9.11042 58.5928C10.2178 57.4744 11.7197 56.8461 13.2857 56.8461ZM31 12.1175C35.6981 12.1175 40.2038 14.0025 43.5259 17.3578C46.848 20.7131 48.7143 25.2639 48.7143 30.009V53.8642H13.2857V30.009C13.2857 25.2639 15.152 20.7131 18.4741 17.3578C21.7962 14.0025 26.3019 12.1175 31 12.1175Z" fill="#03D6F3"/>
</svg>
